<svg xmlns="http://www.w3.org/2000/svg" viewBox="0 0 53.26000213623047 57.4900016784668">
    <g>
        <g>
            <path
                d="M33 37.14a10.89 10.89 0 0 1-4.13-8.4 10.94 10.94 0 0 1 4.13-8.4V0C21 .07 11.23 4.84 5.5 12.44c-.41.55-.81 1.12-1.18 1.7-.05.08-.09.16-.14.23A27 27 0 0 0 2.28 18c0 .1-.09.21-.13.31-.26.62-.5 1.24-.71 1.88-.21.64-.4 1.29-.56 1.95 0 .14-.07.28-.1.42-.15.64-.29 1.29-.4 2a.11.11 0 0 1 0 .05q-.15 1-.24 2v.49C0 27.8 0 28.49 0 29.2c0 16 12.64 28.29 32.76 28.29H33z"
                fill="#333333"></path>
            <path
                d="M40.07 17.33A14.78 14.78 0 0 1 42 17.2h.13V.84c-.66-.13-1.34-.24-2-.34zM37.45 24.81h1.63V37.3h-1.63zM37.05 18.05a15.05 15.05 0 0 1 2-.56V.36c-.66-.08-1.34-.14-2-.2zM43.1 17.25a16.82 16.82 0 0 1 2 .3v-16c-.66-.17-1.33-.33-2-.48zM34 19.59a12.89 12.89 0 0 1 2-1.13V.07C35.38 0 34.7 0 34 0zM49.15 19.12a13.6 13.6 0 0 1 2 1.46V3.68c-.63-.3-1.31-.59-2-.86zM46.13 17.8a13.7 13.7 0 0 1 2 .8V2.43c-.64-.23-1.32-.44-2-.64zM34 57.47c.69 0 1.37 0 2-.09V39a13.74 13.74 0 0 1-2-1.13zM49.15 54.46c.72-.29 1.4-.6 2-.91V24.81h-2zM52.18 24.81V53q.57-.31 1.08-.63V24.81zM46.13 55.55c.71-.22 1.38-.46 2-.7v-30h-2zM37.05 57.3l2-.22V40a15.05 15.05 0 0 1-2-.56zM43.1 56.35c.7-.16 1.38-.33 2-.51v-31h-2zM40.07 37.3H41v2.85a3.9 3.9 0 0 1-.51.06h-.42v16.72c.7-.11 1.37-.23 2-.36V24.81h-2z"
                fill="#1582c7"></path>
        </g>
    </g>
</svg>